<?xml version="1.0" standalone="no"?>
<!DOCTYPE svg PUBLIC "-//W3C//DTD SVG 20010904//EN"
 "http://www.w3.org/TR/2001/REC-SVG-20010904/DTD/svg10.dtd">
<svg version="1.0" xmlns="http://www.w3.org/2000/svg"
 width="180.000000pt" height="180.000000pt" viewBox="0 0 180.000000 180.000000"
 preserveAspectRatio="xMidYMid meet">
<metadata>
Created by potrace 1.14, written by Peter Selinger 2001-2017
</metadata>
<g transform="translate(0.000000,180.000000) scale(0.100000,-0.100000)"
fill="#000000" stroke="none">
<path d="M0 900 l0 -900 900 0 900 0 0 900 0 900 -900 0 -900 0 0 -900z m453
456 c120 -28 173 -91 165 -197 -5 -70 -40 -120 -106 -155 l-42 -22 37 -12
c202 -65 200 -319 -2 -412 -46 -21 -66 -23 -262 -26 l-213 -4 0 421 0 421 183
0 c117 0 202 -5 240 -14z m720 -274 c53 -158 97 -296 98 -307 l0 -20 9 20 c4
11 52 149 105 308 l98 287 133 0 134 0 0 -420 0 -420 -90 0 -90 0 -1 333 c-1
252 -4 322 -12 292 -5 -22 -48 -150 -95 -285 -46 -135 -91 -266 -100 -292
l-16 -48 -77 0 -77 0 -15 43 c-8 23 -52 146 -97 272 -45 127 -90 259 -100 295
-16 64 -16 60 -12 -272 l5 -338 -87 0 -86 0 0 420 0 420 138 0 137 0 98 -288z"/>
<path d="M212 1130 l0 -100 59 0 c82 0 126 20 145 65 12 29 13 44 4 70 -15 45
-60 65 -143 65 l-66 0 1 -100z"/>
<path d="M211 781 l-2 -111 76 0 c93 0 140 19 163 66 21 45 7 99 -31 128 -23
17 -46 22 -116 24 l-87 4 -3 -111z"/>
</g>
</svg>
